<svg xmlns="http://www.w3.org/2000/svg" width="16" height="16" viewBox="0 0 16 16"><defs><style>.a{fill:rgba(255,255,255,0);}.b{fill:#23cefd;stroke:#0c365a;stroke-width:0.5px;}</style></defs><g transform="translate(-27.3 -0.445)"><rect class="a" width="16" height="16" transform="translate(27.3 0.445)"/><path class="b" d="M7,0a7,7,0,1,0,7,7A7.008,7.008,0,0,0,7,0Zm3.063,7.583H7.583v2.479a.583.583,0,1,1-1.167,0V7.583H3.938a.583.583,0,1,1,0-1.167H6.417V3.938a.583.583,0,1,1,1.167,0V6.417h2.479a.583.583,0,1,1,0,1.167Zm0,0" transform="translate(28.3 1.445)"/></g></svg>